<?xml version="1.0" encoding="iso-8859-1"?>
<!-- Generator: Adobe Illustrator 16.0.0, SVG Export Plug-In . SVG Version: 6.00 Build 0)  -->
<!DOCTYPE svg PUBLIC "-//W3C//DTD SVG 1.1//EN" "http://www.w3.org/Graphics/SVG/1.1/DTD/svg11.dtd">
<svg version="1.1" id="Capa_1" xmlns="http://www.w3.org/2000/svg" xmlns:xlink="http://www.w3.org/1999/xlink" x="0px" y="0px"
	 width="82.235px" height="82.235px" viewBox="0 0 82.235 82.235" style="enable-background:new 0 0 82.235 82.235;"
	 xml:space="preserve">
<g>
	<path d="M63.928,14.536C55.865,0.649,38.168-4.055,24.281,3.784C10.392,11.849,5.688,29.546,13.529,43.432
		c8.064,13.889,25.76,18.592,39.646,10.527C67.065,46.344,71.993,28.425,63.928,14.536z M17.785,41.193
		c-6.72-11.646-2.688-26.432,8.96-33.15c11.648-6.722,26.434-2.688,33.152,8.96c6.72,11.646,2.688,26.431-8.961,33.149
		C39.288,56.873,24.505,52.841,17.785,41.193z M70.281,69.15l-12.413,7.172L48.23,59.641l12.413-7.172L70.281,69.15z M68.855,81.289
		C65.496,83.303,61.016,81.96,59,78.6l12.544-7.168C73.561,75.016,72.217,79.271,68.855,81.289z M46.904,23.048h5.602l-5.602,18.144
		h-5.376l-1.792-6.271c-0.448-1.792-0.672-3.361-1.12-5.603c-0.224,2.241-0.672,3.811-1.12,5.603l-1.792,6.271h-5.376l-5.15-18.144
		H31l1.346,7.392c0.446,2.019,0.896,4.032,1.12,6.048c0.224-2.016,0.896-4.256,1.118-6.048l2.018-7.392h4.479l1.792,7.392
		c0.449,2.019,0.896,4.032,1.348,6.048c0.444-2.237,0.672-4.255,1.116-6.271L46.904,23.048z"/>
</g>
<g>
</g>
<g>
</g>
<g>
</g>
<g>
</g>
<g>
</g>
<g>
</g>
<g>
</g>
<g>
</g>
<g>
</g>
<g>
</g>
<g>
</g>
<g>
</g>
<g>
</g>
<g>
</g>
<g>
</g>
</svg>
